<svg id="Layer_3" data-name="Layer 3" xmlns="http://www.w3.org/2000/svg" viewBox="0 0 882.1 1021.68"><defs><style>.cls-1{fill:none;stroke:#000;stroke-linecap:round;stroke-linejoin:round;stroke-width:0;}</style></defs><path class="cls-1" d="M1729.57,1000c-58.93-14.07-136.36-22-220.26,0-11,2.89-21.66,6.16-31.81,9.72a131.88,131.88,0,0,0-7.13,67.06,202.7,202.7,0,0,0,124.81,0L1459.45,1212.6a280.41,280.41,0,0,0-323.66,0L1115.15,1192c6.74-3.1,28.42-14.11,38.84-38.84a71.05,71.05,0,0,0,5.49-25.76,44,44,0,0,0-7-20.61c-1.54-2.35-10.2-15.21-25.16-17.77a33.19,33.19,0,0,0-15.07,1,82.19,82.19,0,0,0-16.51,6.15c-21.6,10.82-33.09,28.65-38.23,38.23l-57.6-57.6a70.51,70.51,0,0,0,57.6,0,150.72,150.72,0,0,0-5.92-68.89c-6.43-2.85-13.17-5.5-20.22-7.88-63.25-21.4-123.77-12.18-165.84,0-8.06,43.61-11.53,97.49,0,156.83,1.89,9.75,4.09,19.13,6.52,28.14a134.31,134.31,0,0,0,70.26,7,76.7,76.7,0,0,0,0-57.6L1000,1192c-11.07,6.67-26.92,18.58-38.38,38.37a102.6,102.6,0,0,0-6.76,14.06,36.75,36.75,0,0,0-2.06,15.55c1.85,20.71,21.65,31.27,23,32,3.58,2,12.14,5.87,25,4.52a128.68,128.68,0,0,0,21.47-11.61,131,131,0,0,0,35.31-35.3l19.23,19A279.73,279.73,0,0,0,1015.87,1443c-.07,140.62,103.29,257.75,238.61,278.49l-.11,99.4c-15-4.29-43.13-9.82-74.68,0a120.65,120.65,0,0,0-23.28,10A46.49,46.49,0,0,0,1144,1851.7a47.43,47.43,0,0,0,0,24.51,54.33,54.33,0,0,0,10,20.83,121.52,121.52,0,0,0,23.27,10.19c32.58,10.38,61.8,4.47,77.14,0V2008h86.4v-100.8c18.08,5.31,49.69,11.36,84,0a127.44,127.44,0,0,0,18.37-7.75,53.47,53.47,0,0,0,8-13.48c7.78-19.09,2-37.16,0-42.91a68.45,68.45,0,0,0-5.54-12.24,109.71,109.71,0,0,0-19.6-10c-35.73-13.91-69.73-5.2-85.27,0v-99.57c134.79-20.87,238.55-137.85,238.55-278.32a280.17,280.17,0,0,0-60.64-174.26l134.1-134.27a174.78,174.78,0,0,0,0,124.82h69.83q3.83-15.23,7-31.31C1745.91,1143.5,1741.6,1065.65,1729.57,1000Z" transform="translate(-858.16 -986.35)"/><path class="cls-1" d="M1295.77,1240.43h0c-111,0-201.6,90.57-201.6,201.6s90.57,201.6,201.6,201.6,201.6-90.57,201.6-201.6S1406.8,1240.43,1295.77,1240.43Z" transform="translate(-858.16 -986.35)"/></svg>