<svg id="Layer_2" data-name="Layer 2" xmlns="http://www.w3.org/2000/svg" viewBox="0 0 882.1 1021.68"><defs><style>.cls-1{fill:none;stroke:#000;stroke-linecap:round;stroke-linejoin:round;stroke-width:0;}</style></defs><path class="cls-1" d="M1477.15,1009.08a131.88,131.88,0,0,0-7.13,67.06,202.73,202.73,0,0,0,124.82,0L1459.1,1211.92a280.41,280.41,0,0,0-323.66,0l-20.64-20.59c6.75-3.1,28.42-14.11,38.85-38.84a71.22,71.22,0,0,0,5.48-25.76,44,44,0,0,0-7-20.61c-1.54-2.35-10.2-15.21-25.16-17.78a33.31,33.31,0,0,0-15.07,1,82.43,82.43,0,0,0-16.5,6.14c-21.61,10.83-33.1,28.66-38.24,38.24l-57.6-57.6a70.51,70.51,0,0,0,57.6,0,150.72,150.72,0,0,0-5.92-68.89c-6.43-2.85-13.17-5.5-20.22-7.89-63.25-21.39-123.77-12.17-165.84,0-8.06,43.62-11.53,97.5,0,156.84,1.89,9.75,4.09,19.13,6.52,28.14a134.31,134.31,0,0,0,70.26,7,76.7,76.7,0,0,0,0-57.6l57.6,57.6c-11.07,6.66-26.92,18.58-38.38,38.37a102.6,102.6,0,0,0-6.76,14.06,36.75,36.75,0,0,0-2.06,15.55c1.85,20.71,21.65,31.26,23,32,3.58,2,12.14,5.87,25,4.52a129.13,129.13,0,0,0,21.48-11.61,131.06,131.06,0,0,0,35.3-35.3l19.24,19a279.66,279.66,0,0,0-60.92,174.38c-.07,140.62,103.29,257.75,238.61,278.49l-.11,99.39c-15-4.28-43.13-9.81-74.68,0a121.26,121.26,0,0,0-23.28,10A46.49,46.49,0,0,0,1143.6,1851a47.54,47.54,0,0,0,0,24.51,54.33,54.33,0,0,0,10,20.83,121.52,121.52,0,0,0,23.27,10.19c32.58,10.38,61.8,4.47,77.14,0v100.8h18.38V1681.79c-121.66-12.49-217.1-115.79-217.1-240.65,0-133.23,108.68-241.92,241.92-241.92h0c133.23,0,241.92,108.69,241.92,241.92,0,124.86-95.45,228.16-217.11,240.65v325.56h18.39v-100.8c18.09,5.32,49.7,11.37,84,0a126.33,126.33,0,0,0,18.37-7.74,53.87,53.87,0,0,0,8-13.48c7.77-19.1,1.94-37.17,0-42.91a68.73,68.73,0,0,0-5.55-12.24,109.71,109.71,0,0,0-19.6-10c-35.73-13.91-69.73-5.2-85.27,0v-99.56c134.79-20.87,238.55-137.85,238.55-278.32A280.27,280.27,0,0,0,1518.34,1268l134.1-134.26a174.6,174.6,0,0,0,0,124.81h69.82q3.83-15.21,7-31.3c16.34-84.43,12-162.28,0-227.9-58.93-14.06-136.36-22-220.26,0C1497.91,1002.25,1487.3,1005.52,1477.15,1009.08Z" transform="translate(-857.82 -985.67)"/></svg>